<svg width="15" height="15" viewBox="0 0 15 15" fill="none" xmlns="http://www.w3.org/2000/svg">
<path d="M0.908098 9.33685C0.700199 9.1157 0.566226 8.83539 0.524734 8.53472C0.483242 8.23406 0.536287 7.92794 0.676519 7.65874C0.822821 7.38528 1.04722 7.16193 1.32258 7.01809L3.14834 6.1264C3.60544 5.89918 4.00346 5.56882 4.31095 5.1614C4.61844 4.75399 4.82699 4.28068 4.92013 3.77885L5.27483 1.75266C5.33832 1.45153 5.4947 1.17792 5.72195 0.970355C5.94919 0.762795 6.23584 0.631757 6.54151 0.595703C6.84718 0.559648 7.15645 0.620396 7.42575 0.769388C7.69505 0.918379 7.9108 1.1481 8.0426 1.42619L8.93614 3.25422C9.16322 3.71153 9.49357 4.10976 9.90108 4.41744C10.3086 4.72511 10.7821 4.93381 11.2842 5.02703L13.3069 5.38496C13.6061 5.44632 13.8787 5.5994 14.0868 5.8229C14.295 6.0464 14.4283 6.32921 14.4682 6.63198C14.5081 6.93475 14.4526 7.24243 14.3094 7.51222C14.1663 7.78201 13.9426 8.00048 13.6695 8.13725L11.8081 9.04817C11.3639 9.27359 10.9767 9.59683 10.6755 9.99354C10.3744 10.3903 10.1671 10.8501 10.0695 11.3385L9.71875 13.3627C9.65713 13.6618 9.50392 13.9343 9.28037 14.1423C9.05682 14.3504 8.77404 14.4837 8.47127 14.5237C8.16851 14.5638 7.86079 14.5086 7.59083 14.3658C7.32088 14.223 7.10208 13.9998 6.96482 13.727L6.07566 11.8998C5.84786 11.4401 5.51533 11.0403 5.10482 10.7325C4.69431 10.4247 4.21729 10.2176 3.71211 10.1277L1.68523 9.77038C1.38685 9.71002 1.11536 9.55779 0.908098 9.33685Z" fill="#358BB9"/>
</svg>
